# xmcd
#
# Track frame offsets: 
#        182
#        11497
#        24817
#        35540
#        49520
#        63180
#        75685
#        86400
#        99667
#        110857
#
# Disc length: 1646 seconds
#
# Revision: 2
# Processed by: cddbd v1.5.2PL0 Copyright (c) Steve Scherf et al.
# Submitted via: ExactAudioCopy v0.99pb5
#
DISCID=6e066c0a
DTITLE=Frank Sinatra and Count Basie - It Might As Well Be Swing
DYEAR=1964
DGENRE=Vocal
TTITLE0=Fly Me To The Moon (In Other Words)
TTITLE1=I Wish You Love
TTITLE2=I Believe In You
TTITLE3=More (Theme From Mondo Cane)
TTITLE4=I Can't Stop Loving You
TTITLE5=Hello, Dolly!
TTITLE6=I Wanna Be Around
TTITLE7=The Best Is Yet To Come
TTITLE8=The Good Life
TTITLE9=Wives And Lovers
EXTD=YEAR: 1964
EXTT0=
EXTT1=
EXTT2=
EXTT3=
EXTT4=
EXTT5=
EXTT6=
EXTT7=
EXTT8=
EXTT9=
PLAYORDER=
